<svg xmlns="http://www.w3.org/2000/svg" width="380" height="376" viewBox="0 0 370 376" font-family="ui-monospace, SFMono-Regular, Menlo, Consolas, monospace">
  <defs>
    <linearGradient id="bg" x1="0" y1="0" x2="0" y2="1">
      <stop offset="0" stop-color="#111722"/>
      <stop offset="1" stop-color="#0d1117"/>
    </linearGradient>
    <linearGradient id="monogram" x1="0" y1="0" x2="1" y2="1">
      <stop offset="0" stop-color="#8b5cf6"/>
      <stop offset="0.5" stop-color="#60a5fa"/>
      <stop offset="1" stop-color="#22c55e"/>
    </linearGradient>
    <filter id="glow" x="-30%" y="-30%" width="160%" height="160%">
      <feGaussianBlur stdDeviation="8" result="b"/>
      <feMerge><feMergeNode in="b"/><feMergeNode in="SourceGraphic"/></feMerge>
    </filter>
  </defs>
  <rect width="370" height="376" rx="12" fill="url(#bg)"/>
  <rect x="0.5" y="0.5" width="369" height="375" rx="12" fill="none" stroke="#30363d"/>
  <line x1="0" y1="30" x2="370" y2="30" stroke="#30363d"/>
  <circle cx="20" cy="15" r="5" fill="#ff5f56"/>
  <circle cx="36" cy="15" r="5" fill="#ffbd2e"/>
  <circle cx="52" cy="15" r="5" fill="#27c93f"/>
  <text x="185" y="18" fill="#7d8590" font-size="12" text-anchor="middle">aarjan@github: ~$ profile</text>

  <rect x="24" y="50" width="322" height="92" rx="18" fill="#0b1020" stroke="#1f2937"/>
  <text x="42" y="82" fill="#7d8590" font-size="12">identity</text>
  <text x="42" y="112" fill="#e6edf3" font-size="26" font-weight="700">Aarjan Adhikari</text>
  <text x="42" y="136" fill="#7d8590" font-size="12">Computer Engineering Student · Kathmandu, Nepal</text>

  <g filter="url(#glow)">
    <circle cx="186" cy="244" r="96" fill="none" stroke="#8b5cf6" stroke-opacity="0.12" stroke-width="22"/>
    <circle cx="186" cy="244" r="72" fill="none" stroke="#60a5fa" stroke-opacity="0.22" stroke-width="2"/>
    <circle cx="186" cy="244" r="108" fill="none" stroke="#22c55e" stroke-opacity="0.09" stroke-width="2" stroke-dasharray="5 9"/>
  </g>
  <text x="186" y="273" text-anchor="middle" font-size="110" font-weight="800" fill="url(#monogram)" letter-spacing="-10">AA</text>
  <text x="186" y="304" text-anchor="middle" fill="#7d8590" font-size="14">AI/ML · Full-Stack · Product Engineering</text>

  <rect x="34" y="336" width="302" height="2" fill="#1f2937"/>
  <text x="34" y="362" fill="#7d8590" font-size="12">clean systems. sharp ux. shipped ideas.</text>
</svg>
