<svg xmlns="http://www.w3.org/2000/svg" width="888" height="158" viewBox="0 0 888 158" font-family="-apple-system,Segoe UI,Helvetica,Arial,sans-serif">
<style>
  text.lbl { fill:#7d8590; font-size:13px; font-weight:600; }
  text.total { fill:#e6edf3; font-size:15px; font-weight:700; }
</style>
<rect width="888" height="158" fill="none"/>
<text class="lbl" x="34" y="16">Jul</text><text class="lbl" x="50" y="16">Aug</text><text class="lbl" x="130" y="16">Sep</text><text class="lbl" x="194" y="16">Oct</text><text class="lbl" x="258" y="16">Nov</text><text class="lbl" x="338" y="16">Dec</text><text class="lbl" x="402" y="16">Jan</text><text class="lbl" x="482" y="16">Feb</text><text class="lbl" x="546" y="16">Mar</text><text class="lbl" x="610" y="16">Apr</text><text class="lbl" x="674" y="16">May</text><text class="lbl" x="754" y="16">Jun</text><text class="lbl" x="818" y="16">Jul</text><text class="lbl" x="2" y="51">Mon</text><text class="lbl" x="2" y="83">Wed</text><text class="lbl" x="2" y="115">Fri</text>
<rect x="34" y="24" width="13" height="13" rx="2.5" fill="#161b22"><title>2025-07-26: 0 contributions</title></rect><rect x="34" y="40" width="13" height="13" rx="2.5" fill="#26a641"><title>2025-07-27: 11 contributions</title></rect><rect x="34" y="56" width="13" height="13" rx="2.5" fill="#69f0a0"><title>2025-07-28: 22 contributions</title></rect><rect x="34" y="72" width="13" height="13" rx="2.5" fill="#69f0a0"><title>2025-07-29: 21 contributions</title></rect><rect x="34" y="88" width="13" height="13" rx="2.5" fill="#69f0a0"><title>2025-07-30: 21 contributions</title></rect><rect x="34" y="104" width="13" height="13" rx="2.5" fill="#69f0a0"><title>2025-07-31: 22 contributions</title></rect><rect x="34" y="120" width="13" height="13" rx="2.5" fill="#69f0a0"><title>2025-08-01: 22 contributions</title></rect><rect x="50" y="24" width="13" height="13" rx="2.5" fill="#39d353"><title>2025-08-02: 14 contributions</title></rect><rect x="50" y="40" width="13" height="13" rx="2.5" fill="#26a641"><title>2025-08-03: 12 contributions</title></rect><rect x="50" y="56" width="13" height="13" rx="2.5" fill="#69f0a0"><title>2025-08-04: 23 contributions</title></rect><rect x="50" y="72" width="13" height="13" rx="2.5" fill="#69f0a0"><title>2025-08-05: 22 contributions</title></rect><rect x="50" y="88" width="13" height="13" rx="2.5" fill="#69f0a0"><title>2025-08-06: 21 contributions</title></rect><rect x="50" y="104" width="13" height="13" rx="2.5" fill="#69f0a0"><title>2025-08-07: 20 contributions</title></rect><rect x="50" y="120" width="13" height="13" rx="2.5" fill="#69f0a0"><title>2025-08-08: 20 contributions</title></rect><rect x="66" y="24" width="13" height="13" rx="2.5" fill="#26a641"><title>2025-08-09: 11 contributions</title></rect><rect x="66" y="40" width="13" height="13" rx="2.5" fill="#26a641"><title>2025-08-10: 11 contributions</title></rect><rect x="66" y="56" width="13" height="13" rx="2.5" fill="#161b22"><title>2025-08-11: 0 contributions</title></rect><rect x="66" y="72" width="13" height="13" rx="2.5" fill="#69f0a0"><title>2025-08-12: 21 contributions</title></rect><rect x="66" y="88" width="13" height="13" rx="2.5" fill="#69f0a0"><title>2025-08-13: 19 contributions</title></rect><rect x="66" y="104" width="13" height="13" rx="2.5" fill="#69f0a0"><title>2025-08-14: 21 contributions</title></rect><rect x="66" y="120" width="13" height="13" rx="2.5" fill="#69f0a0"><title>2025-08-15: 19 contributions</title></rect><rect x="82" y="24" width="13" height="13" rx="2.5" fill="#39d353"><title>2025-08-16: 13 contributions</title></rect><rect x="82" y="40" width="13" height="13" rx="2.5" fill="#26a641"><title>2025-08-17: 12 contributions</title></rect><rect x="82" y="56" width="13" height="13" rx="2.5" fill="#69f0a0"><title>2025-08-18: 20 contributions</title></rect><rect x="82" y="72" width="13" height="13" rx="2.5" fill="#69f0a0"><title>2025-08-19: 21 contributions</title></rect><rect x="82" y="88" width="13" height="13" rx="2.5" fill="#69f0a0"><title>2025-08-20: 23 contributions</title></rect><rect x="82" y="104" width="13" height="13" rx="2.5" fill="#69f0a0"><title>2025-08-21: 22 contributions</title></rect><rect x="82" y="120" width="13" height="13" rx="2.5" fill="#69f0a0"><title>2025-08-22: 21 contributions</title></rect><rect x="98" y="24" width="13" height="13" rx="2.5" fill="#26a641"><title>2025-08-23: 12 contributions</title></rect><rect x="98" y="40" width="13" height="13" rx="2.5" fill="#39d353"><title>2025-08-24: 13 contributions</title></rect><rect x="98" y="56" width="13" height="13" rx="2.5" fill="#69f0a0"><title>2025-08-25: 23 contributions</title></rect><rect x="98" y="72" width="13" height="13" rx="2.5" fill="#69f0a0"><title>2025-08-26: 23 contributions</title></rect><rect x="98" y="88" width="13" height="13" rx="2.5" fill="#69f0a0"><title>2025-08-27: 22 contributions</title></rect><rect x="98" y="104" width="13" height="13" rx="2.5" fill="#69f0a0"><title>2025-08-28: 21 contributions</title></rect><rect x="98" y="120" width="13" height="13" rx="2.5" fill="#69f0a0"><title>2025-08-29: 22 contributions</title></rect><rect x="114" y="24" width="13" height="13" rx="2.5" fill="#161b22"><title>2025-08-30: 0 contributions</title></rect><rect x="114" y="40" width="13" height="13" rx="2.5" fill="#26a641"><title>2025-08-31: 11 contributions</title></rect><rect x="114" y="56" width="13" height="13" rx="2.5" fill="#69f0a0"><title>2025-09-01: 45 contributions</title></rect><rect x="114" y="72" width="13" height="13" rx="2.5" fill="#39d353"><title>2025-09-02: 17 contributions</title></rect><rect x="114" y="88" width="13" height="13" rx="2.5" fill="#39d353"><title>2025-09-03: 17 contributions</title></rect><rect x="114" y="104" width="13" height="13" rx="2.5" fill="#39d353"><title>2025-09-04: 16 contributions</title></rect><rect x="114" y="120" width="13" height="13" rx="2.5" fill="#39d353"><title>2025-09-05: 15 contributions</title></rect><rect x="130" y="24" width="13" height="13" rx="2.5" fill="#26a641"><title>2025-09-06: 8 contributions</title></rect><rect x="130" y="40" width="13" height="13" rx="2.5" fill="#006d32"><title>2025-09-07: 6 contributions</title></rect><rect x="130" y="56" width="13" height="13" rx="2.5" fill="#26a641"><title>2025-09-08: 10 contributions</title></rect><rect x="130" y="72" width="13" height="13" rx="2.5" fill="#26a641"><title>2025-09-09: 10 contributions</title></rect><rect x="130" y="88" width="13" height="13" rx="2.5" fill="#006d32"><title>2025-09-10: 6 contributions</title></rect><rect x="130" y="104" width="13" height="13" rx="2.5" fill="#006d32"><title>2025-09-11: 6 contributions</title></rect><rect x="130" y="120" width="13" height="13" rx="2.5" fill="#006d32"><title>2025-09-12: 4 contributions</title></rect><rect x="146" y="24" width="13" height="13" rx="2.5" fill="#0e4429"><title>2025-09-13: 3 contributions</title></rect><rect x="146" y="40" width="13" height="13" rx="2.5" fill="#0e4429"><title>2025-09-14: 2 contributions</title></rect><rect x="146" y="56" width="13" height="13" rx="2.5" fill="#0e4429"><title>2025-09-15: 3 contributions</title></rect><rect x="146" y="72" width="13" height="13" rx="2.5" fill="#0e4429"><title>2025-09-16: 1 contributions</title></rect><rect x="146" y="88" width="13" height="13" rx="2.5" fill="#0e4429"><title>2025-09-17: 2 contributions</title></rect><rect x="146" y="104" width="13" height="13" rx="2.5" fill="#161b22"><title>2025-09-18: 0 contributions</title></rect><rect x="146" y="120" width="13" height="13" rx="2.5" fill="#161b22"><title>2025-09-19: 0 contributions</title></rect><rect x="162" y="24" width="13" height="13" rx="2.5" fill="#161b22"><title>2025-09-20: 0 contributions</title></rect><rect x="162" y="40" width="13" height="13" rx="2.5" fill="#0e4429"><title>2025-09-21: 1 contributions</title></rect><rect x="162" y="56" width="13" height="13" rx="2.5" fill="#0e4429"><title>2025-09-22: 3 contributions</title></rect><rect x="162" y="72" width="13" height="13" rx="2.5" fill="#0e4429"><title>2025-09-23: 3 contributions</title></rect><rect x="162" y="88" width="13" height="13" rx="2.5" fill="#006d32"><title>2025-09-24: 4 contributions</title></rect><rect x="162" y="104" width="13" height="13" rx="2.5" fill="#006d32"><title>2025-09-25: 5 contributions</title></rect><rect x="162" y="120" width="13" height="13" rx="2.5" fill="#006d32"><title>2025-09-26: 7 contributions</title></rect><rect x="178" y="24" width="13" height="13" rx="2.5" fill="#006d32"><title>2025-09-27: 5 contributions</title></rect><rect x="178" y="40" width="13" height="13" rx="2.5" fill="#006d32"><title>2025-09-28: 6 contributions</title></rect><rect x="178" y="56" width="13" height="13" rx="2.5" fill="#26a641"><title>2025-09-29: 12 contributions</title></rect><rect x="178" y="72" width="13" height="13" rx="2.5" fill="#26a641"><title>2025-09-30: 12 contributions</title></rect><rect x="178" y="88" width="13" height="13" rx="2.5" fill="#39d353"><title>2025-10-01: 14 contributions</title></rect><rect x="178" y="104" width="13" height="13" rx="2.5" fill="#39d353"><title>2025-10-02: 16 contributions</title></rect><rect x="178" y="120" width="13" height="13" rx="2.5" fill="#39d353"><title>2025-10-03: 16 contributions</title></rect><rect x="194" y="24" width="13" height="13" rx="2.5" fill="#26a641"><title>2025-10-04: 10 contributions</title></rect><rect x="194" y="40" width="13" height="13" rx="2.5" fill="#26a641"><title>2025-10-05: 10 contributions</title></rect><rect x="194" y="56" width="13" height="13" rx="2.5" fill="#69f0a0"><title>2025-10-06: 21 contributions</title></rect><rect x="194" y="72" width="13" height="13" rx="2.5" fill="#161b22"><title>2025-10-07: 0 contributions</title></rect><rect x="194" y="88" width="13" height="13" rx="2.5" fill="#69f0a0"><title>2025-10-08: 51 contributions</title></rect><rect x="194" y="104" width="13" height="13" rx="2.5" fill="#69f0a0"><title>2025-10-09: 21 contributions</title></rect><rect x="194" y="120" width="13" height="13" rx="2.5" fill="#69f0a0"><title>2025-10-10: 21 contributions</title></rect><rect x="210" y="24" width="13" height="13" rx="2.5" fill="#39d353"><title>2025-10-11: 13 contributions</title></rect><rect x="210" y="40" width="13" height="13" rx="2.5" fill="#39d353"><title>2025-10-12: 13 contributions</title></rect><rect x="210" y="56" width="13" height="13" rx="2.5" fill="#69f0a0"><title>2025-10-13: 22 contributions</title></rect><rect x="210" y="72" width="13" height="13" rx="2.5" fill="#69f0a0"><title>2025-10-14: 23 contributions</title></rect><rect x="210" y="88" width="13" height="13" rx="2.5" fill="#69f0a0"><title>2025-10-15: 21 contributions</title></rect><rect x="210" y="104" width="13" height="13" rx="2.5" fill="#69f0a0"><title>2025-10-16: 21 contributions</title></rect><rect x="210" y="120" width="13" height="13" rx="2.5" fill="#69f0a0"><title>2025-10-17: 20 contributions</title></rect><rect x="226" y="24" width="13" height="13" rx="2.5" fill="#26a641"><title>2025-10-18: 11 contributions</title></rect><rect x="226" y="40" width="13" height="13" rx="2.5" fill="#26a641"><title>2025-10-19: 11 contributions</title></rect><rect x="226" y="56" width="13" height="13" rx="2.5" fill="#69f0a0"><title>2025-10-20: 20 contributions</title></rect><rect x="226" y="72" width="13" height="13" rx="2.5" fill="#69f0a0"><title>2025-10-21: 20 contributions</title></rect><rect x="226" y="88" width="13" height="13" rx="2.5" fill="#69f0a0"><title>2025-10-22: 20 contributions</title></rect><rect x="226" y="104" width="13" height="13" rx="2.5" fill="#69f0a0"><title>2025-10-23: 19 contributions</title></rect><rect x="226" y="120" width="13" height="13" rx="2.5" fill="#69f0a0"><title>2025-10-24: 19 contributions</title></rect><rect x="242" y="24" width="13" height="13" rx="2.5" fill="#39d353"><title>2025-10-25: 13 contributions</title></rect><rect x="242" y="40" width="13" height="13" rx="2.5" fill="#161b22"><title>2025-10-26: 0 contributions</title></rect><rect x="242" y="56" width="13" height="13" rx="2.5" fill="#69f0a0"><title>2025-10-27: 20 contributions</title></rect><rect x="242" y="72" width="13" height="13" rx="2.5" fill="#69f0a0"><title>2025-10-28: 21 contributions</title></rect><rect x="242" y="88" width="13" height="13" rx="2.5" fill="#69f0a0"><title>2025-10-29: 21 contributions</title></rect><rect x="242" y="104" width="13" height="13" rx="2.5" fill="#69f0a0"><title>2025-10-30: 36 contributions</title></rect><rect x="242" y="120" width="13" height="13" rx="2.5" fill="#69f0a0"><title>2025-10-31: 36 contributions</title></rect><rect x="258" y="24" width="13" height="13" rx="2.5" fill="#69f0a0"><title>2025-11-01: 21 contributions</title></rect><rect x="258" y="40" width="13" height="13" rx="2.5" fill="#69f0a0"><title>2025-11-02: 20 contributions</title></rect><rect x="258" y="56" width="13" height="13" rx="2.5" fill="#69f0a0"><title>2025-11-03: 37 contributions</title></rect><rect x="258" y="72" width="13" height="13" rx="2.5" fill="#69f0a0"><title>2025-11-04: 40 contributions</title></rect><rect x="258" y="88" width="13" height="13" rx="2.5" fill="#69f0a0"><title>2025-11-05: 40 contributions</title></rect><rect x="258" y="104" width="13" height="13" rx="2.5" fill="#69f0a0"><title>2025-11-06: 39 contributions</title></rect><rect x="258" y="120" width="13" height="13" rx="2.5" fill="#69f0a0"><title>2025-11-07: 39 contributions</title></rect><rect x="274" y="24" width="13" height="13" rx="2.5" fill="#69f0a0"><title>2025-11-08: 21 contributions</title></rect><rect x="274" y="40" width="13" height="13" rx="2.5" fill="#69f0a0"><title>2025-11-09: 38 contributions</title></rect><rect x="274" y="56" width="13" height="13" rx="2.5" fill="#69f0a0"><title>2025-11-10: 36 contributions</title></rect><rect x="274" y="72" width="13" height="13" rx="2.5" fill="#69f0a0"><title>2025-11-11: 34 contributions</title></rect><rect x="274" y="88" width="13" height="13" rx="2.5" fill="#69f0a0"><title>2025-11-12: 31 contributions</title></rect><rect x="274" y="104" width="13" height="13" rx="2.5" fill="#69f0a0"><title>2025-11-13: 30 contributions</title></rect><rect x="274" y="120" width="13" height="13" rx="2.5" fill="#161b22"><title>2025-11-14: 0 contributions</title></rect><rect x="290" y="24" width="13" height="13" rx="2.5" fill="#39d353"><title>2025-11-15: 15 contributions</title></rect><rect x="290" y="40" width="13" height="13" rx="2.5" fill="#26a641"><title>2025-11-16: 12 contributions</title></rect><rect x="290" y="56" width="13" height="13" rx="2.5" fill="#69f0a0"><title>2025-11-17: 20 contributions</title></rect><rect x="290" y="72" width="13" height="13" rx="2.5" fill="#39d353"><title>2025-11-18: 18 contributions</title></rect><rect x="290" y="88" width="13" height="13" rx="2.5" fill="#39d353"><title>2025-11-19: 15 contributions</title></rect><rect x="290" y="104" width="13" height="13" rx="2.5" fill="#39d353"><title>2025-11-20: 13 contributions</title></rect><rect x="290" y="120" width="13" height="13" rx="2.5" fill="#26a641"><title>2025-11-21: 11 contributions</title></rect><rect x="306" y="24" width="13" height="13" rx="2.5" fill="#006d32"><title>2025-11-22: 6 contributions</title></rect><rect x="306" y="40" width="13" height="13" rx="2.5" fill="#0e4429"><title>2025-11-23: 3 contributions</title></rect><rect x="306" y="56" width="13" height="13" rx="2.5" fill="#006d32"><title>2025-11-24: 5 contributions</title></rect><rect x="306" y="72" width="13" height="13" rx="2.5" fill="#006d32"><title>2025-11-25: 4 contributions</title></rect><rect x="306" y="88" width="13" height="13" rx="2.5" fill="#0e4429"><title>2025-11-26: 3 contributions</title></rect><rect x="306" y="104" width="13" height="13" rx="2.5" fill="#0e4429"><title>2025-11-27: 2 contributions</title></rect><rect x="306" y="120" width="13" height="13" rx="2.5" fill="#0e4429"><title>2025-11-28: 2 contributions</title></rect><rect x="322" y="24" width="13" height="13" rx="2.5" fill="#0e4429"><title>2025-11-29: 1 contributions</title></rect><rect x="322" y="40" width="13" height="13" rx="2.5" fill="#0e4429"><title>2025-11-30: 2 contributions</title></rect><rect x="322" y="56" width="13" height="13" rx="2.5" fill="#0e4429"><title>2025-12-01: 1 contributions</title></rect><rect x="322" y="72" width="13" height="13" rx="2.5" fill="#0e4429"><title>2025-12-02: 1 contributions</title></rect><rect x="322" y="88" width="13" height="13" rx="2.5" fill="#161b22"><title>2025-12-03: 0 contributions</title></rect><rect x="322" y="104" width="13" height="13" rx="2.5" fill="#006d32"><title>2025-12-04: 4 contributions</title></rect><rect x="322" y="120" width="13" height="13" rx="2.5" fill="#006d32"><title>2025-12-05: 5 contributions</title></rect><rect x="338" y="24" width="13" height="13" rx="2.5" fill="#0e4429"><title>2025-12-06: 3 contributions</title></rect><rect x="338" y="40" width="13" height="13" rx="2.5" fill="#006d32"><title>2025-12-07: 5 contributions</title></rect><rect x="338" y="56" width="13" height="13" rx="2.5" fill="#26a641"><title>2025-12-08: 9 contributions</title></rect><rect x="338" y="72" width="13" height="13" rx="2.5" fill="#26a641"><title>2025-12-09: 9 contributions</title></rect><rect x="338" y="88" width="13" height="13" rx="2.5" fill="#26a641"><title>2025-12-10: 12 contributions</title></rect><rect x="338" y="104" width="13" height="13" rx="2.5" fill="#26a641"><title>2025-12-11: 12 contributions</title></rect><rect x="338" y="120" width="13" height="13" rx="2.5" fill="#39d353"><title>2025-12-12: 14 contributions</title></rect><rect x="354" y="24" width="13" height="13" rx="2.5" fill="#26a641"><title>2025-12-13: 10 contributions</title></rect><rect x="354" y="40" width="13" height="13" rx="2.5" fill="#26a641"><title>2025-12-14: 9 contributions</title></rect><rect x="354" y="56" width="13" height="13" rx="2.5" fill="#69f0a0"><title>2025-12-15: 19 contributions</title></rect><rect x="354" y="72" width="13" height="13" rx="2.5" fill="#39d353"><title>2025-12-16: 18 contributions</title></rect><rect x="354" y="88" width="13" height="13" rx="2.5" fill="#69f0a0"><title>2025-12-17: 20 contributions</title></rect><rect x="354" y="104" width="13" height="13" rx="2.5" fill="#69f0a0"><title>2025-12-18: 21 contributions</title></rect><rect x="354" y="120" width="13" height="13" rx="2.5" fill="#69f0a0"><title>2025-12-19: 22 contributions</title></rect><rect x="370" y="24" width="13" height="13" rx="2.5" fill="#26a641"><title>2025-12-20: 11 contributions</title></rect><rect x="370" y="40" width="13" height="13" rx="2.5" fill="#69f0a0"><title>2025-12-21: 27 contributions</title></rect><rect x="370" y="56" width="13" height="13" rx="2.5" fill="#161b22"><title>2025-12-22: 0 contributions</title></rect><rect x="370" y="72" width="13" height="13" rx="2.5" fill="#69f0a0"><title>2025-12-23: 21 contributions</title></rect><rect x="370" y="88" width="13" height="13" rx="2.5" fill="#69f0a0"><title>2025-12-24: 23 contributions</title></rect><rect x="370" y="104" width="13" height="13" rx="2.5" fill="#69f0a0"><title>2025-12-25: 22 contributions</title></rect><rect x="370" y="120" width="13" height="13" rx="2.5" fill="#69f0a0"><title>2025-12-26: 20 contributions</title></rect><rect x="386" y="24" width="13" height="13" rx="2.5" fill="#39d353"><title>2025-12-27: 13 contributions</title></rect><rect x="386" y="40" width="13" height="13" rx="2.5" fill="#26a641"><title>2025-12-28: 12 contributions</title></rect><rect x="386" y="56" width="13" height="13" rx="2.5" fill="#69f0a0"><title>2025-12-29: 21 contributions</title></rect><rect x="386" y="72" width="13" height="13" rx="2.5" fill="#69f0a0"><title>2025-12-30: 19 contributions</title></rect><rect x="386" y="88" width="13" height="13" rx="2.5" fill="#69f0a0"><title>2025-12-31: 19 contributions</title></rect><rect x="386" y="104" width="13" height="13" rx="2.5" fill="#69f0a0"><title>2026-01-01: 47 contributions</title></rect><rect x="386" y="120" width="13" height="13" rx="2.5" fill="#69f0a0"><title>2026-01-02: 20 contributions</title></rect><rect x="402" y="24" width="13" height="13" rx="2.5" fill="#26a641"><title>2026-01-03: 11 contributions</title></rect><rect x="402" y="40" width="13" height="13" rx="2.5" fill="#26a641"><title>2026-01-04: 11 contributions</title></rect><rect x="402" y="56" width="13" height="13" rx="2.5" fill="#69f0a0"><title>2026-01-05: 19 contributions</title></rect><rect x="402" y="72" width="13" height="13" rx="2.5" fill="#69f0a0"><title>2026-01-06: 22 contributions</title></rect><rect x="402" y="88" width="13" height="13" rx="2.5" fill="#69f0a0"><title>2026-01-07: 20 contributions</title></rect><rect x="402" y="104" width="13" height="13" rx="2.5" fill="#69f0a0"><title>2026-01-08: 20 contributions</title></rect><rect x="402" y="120" width="13" height="13" rx="2.5" fill="#69f0a0"><title>2026-01-09: 22 contributions</title></rect><rect x="418" y="24" width="13" height="13" rx="2.5" fill="#161b22"><title>2026-01-10: 0 contributions</title></rect><rect x="418" y="40" width="13" height="13" rx="2.5" fill="#39d353"><title>2026-01-11: 14 contributions</title></rect><rect x="418" y="56" width="13" height="13" rx="2.5" fill="#69f0a0"><title>2026-01-12: 22 contributions</title></rect><rect x="418" y="72" width="13" height="13" rx="2.5" fill="#69f0a0"><title>2026-01-13: 22 contributions</title></rect><rect x="418" y="88" width="13" height="13" rx="2.5" fill="#69f0a0"><title>2026-01-14: 24 contributions</title></rect><rect x="418" y="104" width="13" height="13" rx="2.5" fill="#69f0a0"><title>2026-01-15: 25 contributions</title></rect><rect x="418" y="120" width="13" height="13" rx="2.5" fill="#69f0a0"><title>2026-01-16: 23 contributions</title></rect><rect x="434" y="24" width="13" height="13" rx="2.5" fill="#39d353"><title>2026-01-17: 13 contributions</title></rect><rect x="434" y="40" width="13" height="13" rx="2.5" fill="#39d353"><title>2026-01-18: 14 contributions</title></rect><rect x="434" y="56" width="13" height="13" rx="2.5" fill="#69f0a0"><title>2026-01-19: 24 contributions</title></rect><rect x="434" y="72" width="13" height="13" rx="2.5" fill="#69f0a0"><title>2026-01-20: 22 contributions</title></rect><rect x="434" y="88" width="13" height="13" rx="2.5" fill="#69f0a0"><title>2026-01-21: 21 contributions</title></rect><rect x="434" y="104" width="13" height="13" rx="2.5" fill="#69f0a0"><title>2026-01-22: 22 contributions</title></rect><rect x="434" y="120" width="13" height="13" rx="2.5" fill="#69f0a0"><title>2026-01-23: 19 contributions</title></rect><rect x="450" y="24" width="13" height="13" rx="2.5" fill="#26a641"><title>2026-01-24: 11 contributions</title></rect><rect x="450" y="40" width="13" height="13" rx="2.5" fill="#26a641"><title>2026-01-25: 10 contributions</title></rect><rect x="450" y="56" width="13" height="13" rx="2.5" fill="#39d353"><title>2026-01-26: 16 contributions</title></rect><rect x="450" y="72" width="13" height="13" rx="2.5" fill="#69f0a0"><title>2026-01-27: 33 contributions</title></rect><rect x="450" y="88" width="13" height="13" rx="2.5" fill="#39d353"><title>2026-01-28: 14 contributions</title></rect><rect x="450" y="104" width="13" height="13" rx="2.5" fill="#161b22"><title>2026-01-29: 0 contributions</title></rect><rect x="450" y="120" width="13" height="13" rx="2.5" fill="#26a641"><title>2026-01-30: 9 contributions</title></rect><rect x="466" y="24" width="13" height="13" rx="2.5" fill="#006d32"><title>2026-01-31: 4 contributions</title></rect><rect x="466" y="40" width="13" height="13" rx="2.5" fill="#0e4429"><title>2026-02-01: 3 contributions</title></rect><rect x="466" y="56" width="13" height="13" rx="2.5" fill="#006d32"><title>2026-02-02: 4 contributions</title></rect><rect x="466" y="72" width="13" height="13" rx="2.5" fill="#006d32"><title>2026-02-03: 4 contributions</title></rect><rect x="466" y="88" width="13" height="13" rx="2.5" fill="#0e4429"><title>2026-02-04: 2 contributions</title></rect><rect x="466" y="104" width="13" height="13" rx="2.5" fill="#0e4429"><title>2026-02-05: 3 contributions</title></rect><rect x="466" y="120" width="13" height="13" rx="2.5" fill="#0e4429"><title>2026-02-06: 3 contributions</title></rect><rect x="482" y="24" width="13" height="13" rx="2.5" fill="#161b22"><title>2026-02-07: 0 contributions</title></rect><rect x="482" y="40" width="13" height="13" rx="2.5" fill="#0e4429"><title>2026-02-08: 2 contributions</title></rect><rect x="482" y="56" width="13" height="13" rx="2.5" fill="#161b22"><title>2026-02-09: 0 contributions</title></rect><rect x="482" y="72" width="13" height="13" rx="2.5" fill="#161b22"><title>2026-02-10: 0 contributions</title></rect><rect x="482" y="88" width="13" height="13" rx="2.5" fill="#0e4429"><title>2026-02-11: 1 contributions</title></rect><rect x="482" y="104" width="13" height="13" rx="2.5" fill="#0e4429"><title>2026-02-12: 1 contributions</title></rect><rect x="482" y="120" width="13" height="13" rx="2.5" fill="#0e4429"><title>2026-02-13: 2 contributions</title></rect><rect x="498" y="24" width="13" height="13" rx="2.5" fill="#0e4429"><title>2026-02-14: 2 contributions</title></rect><rect x="498" y="40" width="13" height="13" rx="2.5" fill="#0e4429"><title>2026-02-15: 2 contributions</title></rect><rect x="498" y="56" width="13" height="13" rx="2.5" fill="#006d32"><title>2026-02-16: 6 contributions</title></rect><rect x="498" y="72" width="13" height="13" rx="2.5" fill="#161b22"><title>2026-02-17: 0 contributions</title></rect><rect x="498" y="88" width="13" height="13" rx="2.5" fill="#26a641"><title>2026-02-18: 10 contributions</title></rect><rect x="498" y="104" width="13" height="13" rx="2.5" fill="#26a641"><title>2026-02-19: 9 contributions</title></rect><rect x="498" y="120" width="13" height="13" rx="2.5" fill="#26a641"><title>2026-02-20: 12 contributions</title></rect><rect x="514" y="24" width="13" height="13" rx="2.5" fill="#26a641"><title>2026-02-21: 8 contributions</title></rect><rect x="514" y="40" width="13" height="13" rx="2.5" fill="#006d32"><title>2026-02-22: 7 contributions</title></rect><rect x="514" y="56" width="13" height="13" rx="2.5" fill="#69f0a0"><title>2026-02-23: 37 contributions</title></rect><rect x="514" y="72" width="13" height="13" rx="2.5" fill="#39d353"><title>2026-02-24: 16 contributions</title></rect><rect x="514" y="88" width="13" height="13" rx="2.5" fill="#69f0a0"><title>2026-02-25: 19 contributions</title></rect><rect x="514" y="104" width="13" height="13" rx="2.5" fill="#69f0a0"><title>2026-02-26: 20 contributions</title></rect><rect x="514" y="120" width="13" height="13" rx="2.5" fill="#69f0a0"><title>2026-02-27: 19 contributions</title></rect><rect x="530" y="24" width="13" height="13" rx="2.5" fill="#26a641"><title>2026-02-28: 10 contributions</title></rect><rect x="530" y="40" width="13" height="13" rx="2.5" fill="#26a641"><title>2026-03-01: 12 contributions</title></rect><rect x="530" y="56" width="13" height="13" rx="2.5" fill="#69f0a0"><title>2026-03-02: 21 contributions</title></rect><rect x="530" y="72" width="13" height="13" rx="2.5" fill="#69f0a0"><title>2026-03-03: 20 contributions</title></rect><rect x="530" y="88" width="13" height="13" rx="2.5" fill="#69f0a0"><title>2026-03-04: 34 contributions</title></rect><rect x="530" y="104" width="13" height="13" rx="2.5" fill="#69f0a0"><title>2026-03-05: 62 contributions</title></rect><rect x="530" y="120" width="13" height="13" rx="2.5" fill="#69f0a0"><title>2026-03-06: 35 contributions</title></rect><rect x="546" y="24" width="13" height="13" rx="2.5" fill="#69f0a0"><title>2026-03-07: 20 contributions</title></rect><rect x="546" y="40" width="13" height="13" rx="2.5" fill="#161b22"><title>2026-03-08: 0 contributions</title></rect><rect x="546" y="56" width="13" height="13" rx="2.5" fill="#69f0a0"><title>2026-03-09: 34 contributions</title></rect><rect x="546" y="72" width="13" height="13" rx="2.5" fill="#69f0a0"><title>2026-03-10: 34 contributions</title></rect><rect x="546" y="88" width="13" height="13" rx="2.5" fill="#69f0a0"><title>2026-03-11: 33 contributions</title></rect><rect x="546" y="104" width="13" height="13" rx="2.5" fill="#69f0a0"><title>2026-03-12: 32 contributions</title></rect><rect x="546" y="120" width="13" height="13" rx="2.5" fill="#69f0a0"><title>2026-03-13: 32 contributions</title></rect><rect x="562" y="24" width="13" height="13" rx="2.5" fill="#69f0a0"><title>2026-03-14: 19 contributions</title></rect><rect x="562" y="40" width="13" height="13" rx="2.5" fill="#69f0a0"><title>2026-03-15: 19 contributions</title></rect><rect x="562" y="56" width="13" height="13" rx="2.5" fill="#69f0a0"><title>2026-03-16: 32 contributions</title></rect><rect x="562" y="72" width="13" height="13" rx="2.5" fill="#69f0a0"><title>2026-03-17: 33 contributions</title></rect><rect x="562" y="88" width="13" height="13" rx="2.5" fill="#69f0a0"><title>2026-03-18: 33 contributions</title></rect><rect x="562" y="104" width="13" height="13" rx="2.5" fill="#69f0a0"><title>2026-03-19: 34 contributions</title></rect><rect x="562" y="120" width="13" height="13" rx="2.5" fill="#69f0a0"><title>2026-03-20: 36 contributions</title></rect><rect x="578" y="24" width="13" height="13" rx="2.5" fill="#69f0a0"><title>2026-03-21: 20 contributions</title></rect><rect x="578" y="40" width="13" height="13" rx="2.5" fill="#69f0a0"><title>2026-03-22: 20 contributions</title></rect><rect x="578" y="56" width="13" height="13" rx="2.5" fill="#69f0a0"><title>2026-03-23: 38 contributions</title></rect><rect x="578" y="72" width="13" height="13" rx="2.5" fill="#69f0a0"><title>2026-03-24: 37 contributions</title></rect><rect x="578" y="88" width="13" height="13" rx="2.5" fill="#69f0a0"><title>2026-03-25: 39 contributions</title></rect><rect x="578" y="104" width="13" height="13" rx="2.5" fill="#69f0a0"><title>2026-03-26: 40 contributions</title></rect><rect x="578" y="120" width="13" height="13" rx="2.5" fill="#161b22"><title>2026-03-27: 0 contributions</title></rect><rect x="594" y="24" width="13" height="13" rx="2.5" fill="#69f0a0"><title>2026-03-28: 22 contributions</title></rect><rect x="594" y="40" width="13" height="13" rx="2.5" fill="#161b22"><title>2026-03-29: 0 contributions</title></rect><rect x="594" y="56" width="13" height="13" rx="2.5" fill="#69f0a0"><title>2026-03-30: 41 contributions</title></rect><rect x="594" y="72" width="13" height="13" rx="2.5" fill="#69f0a0"><title>2026-03-31: 38 contributions</title></rect><rect x="594" y="88" width="13" height="13" rx="2.5" fill="#69f0a0"><title>2026-04-01: 38 contributions</title></rect><rect x="594" y="104" width="13" height="13" rx="2.5" fill="#69f0a0"><title>2026-04-02: 24 contributions</title></rect><rect x="594" y="120" width="13" height="13" rx="2.5" fill="#69f0a0"><title>2026-04-03: 21 contributions</title></rect><rect x="610" y="24" width="13" height="13" rx="2.5" fill="#26a641"><title>2026-04-04: 11 contributions</title></rect><rect x="610" y="40" width="13" height="13" rx="2.5" fill="#26a641"><title>2026-04-05: 10 contributions</title></rect><rect x="610" y="56" width="13" height="13" rx="2.5" fill="#39d353"><title>2026-04-06: 17 contributions</title></rect><rect x="610" y="72" width="13" height="13" rx="2.5" fill="#39d353"><title>2026-04-07: 17 contributions</title></rect><rect x="610" y="88" width="13" height="13" rx="2.5" fill="#39d353"><title>2026-04-08: 16 contributions</title></rect><rect x="610" y="104" width="13" height="13" rx="2.5" fill="#39d353"><title>2026-04-09: 14 contributions</title></rect><rect x="610" y="120" width="13" height="13" rx="2.5" fill="#26a641"><title>2026-04-10: 12 contributions</title></rect><rect x="626" y="24" width="13" height="13" rx="2.5" fill="#39d353"><title>2026-04-11: 14 contributions</title></rect><rect x="626" y="40" width="13" height="13" rx="2.5" fill="#006d32"><title>2026-04-12: 5 contributions</title></rect><rect x="626" y="56" width="13" height="13" rx="2.5" fill="#006d32"><title>2026-04-13: 7 contributions</title></rect><rect x="626" y="72" width="13" height="13" rx="2.5" fill="#006d32"><title>2026-04-14: 7 contributions</title></rect><rect x="626" y="88" width="13" height="13" rx="2.5" fill="#161b22"><title>2026-04-15: 0 contributions</title></rect><rect x="626" y="104" width="13" height="13" rx="2.5" fill="#006d32"><title>2026-04-16: 4 contributions</title></rect><rect x="626" y="120" width="13" height="13" rx="2.5" fill="#006d32"><title>2026-04-17: 6 contributions</title></rect><rect x="642" y="24" width="13" height="13" rx="2.5" fill="#0e4429"><title>2026-04-18: 2 contributions</title></rect><rect x="642" y="40" width="13" height="13" rx="2.5" fill="#0e4429"><title>2026-04-19: 1 contributions</title></rect><rect x="642" y="56" width="13" height="13" rx="2.5" fill="#0e4429"><title>2026-04-20: 1 contributions</title></rect><rect x="642" y="72" width="13" height="13" rx="2.5" fill="#0e4429"><title>2026-04-21: 2 contributions</title></rect><rect x="642" y="88" width="13" height="13" rx="2.5" fill="#0e4429"><title>2026-04-22: 1 contributions</title></rect><rect x="642" y="104" width="13" height="13" rx="2.5" fill="#161b22"><title>2026-04-23: 0 contributions</title></rect><rect x="642" y="120" width="13" height="13" rx="2.5" fill="#0e4429"><title>2026-04-24: 1 contributions</title></rect><rect x="658" y="24" width="13" height="13" rx="2.5" fill="#0e4429"><title>2026-04-25: 2 contributions</title></rect><rect x="658" y="40" width="13" height="13" rx="2.5" fill="#0e4429"><title>2026-04-26: 1 contributions</title></rect><rect x="658" y="56" width="13" height="13" rx="2.5" fill="#0e4429"><title>2026-04-27: 3 contributions</title></rect><rect x="658" y="72" width="13" height="13" rx="2.5" fill="#006d32"><title>2026-04-28: 6 contributions</title></rect><rect x="658" y="88" width="13" height="13" rx="2.5" fill="#26a641"><title>2026-04-29: 8 contributions</title></rect><rect x="658" y="104" width="13" height="13" rx="2.5" fill="#006d32"><title>2026-04-30: 7 contributions</title></rect><rect x="658" y="120" width="13" height="13" rx="2.5" fill="#26a641"><title>2026-05-01: 9 contributions</title></rect><rect x="674" y="24" width="13" height="13" rx="2.5" fill="#006d32"><title>2026-05-02: 5 contributions</title></rect><rect x="674" y="40" width="13" height="13" rx="2.5" fill="#006d32"><title>2026-05-03: 6 contributions</title></rect><rect x="674" y="56" width="13" height="13" rx="2.5" fill="#161b22"><title>2026-05-04: 0 contributions</title></rect><rect x="674" y="72" width="13" height="13" rx="2.5" fill="#39d353"><title>2026-05-05: 15 contributions</title></rect><rect x="674" y="88" width="13" height="13" rx="2.5" fill="#39d353"><title>2026-05-06: 17 contributions</title></rect><rect x="674" y="104" width="13" height="13" rx="2.5" fill="#39d353"><title>2026-05-07: 18 contributions</title></rect><rect x="674" y="120" width="13" height="13" rx="2.5" fill="#39d353"><title>2026-05-08: 17 contributions</title></rect><rect x="690" y="24" width="13" height="13" rx="2.5" fill="#161b22"><title>2026-05-09: 0 contributions</title></rect><rect x="690" y="40" width="13" height="13" rx="2.5" fill="#26a641"><title>2026-05-10: 12 contributions</title></rect><rect x="690" y="56" width="13" height="13" rx="2.5" fill="#69f0a0"><title>2026-05-11: 19 contributions</title></rect><rect x="690" y="72" width="13" height="13" rx="2.5" fill="#69f0a0"><title>2026-05-12: 19 contributions</title></rect><rect x="690" y="88" width="13" height="13" rx="2.5" fill="#69f0a0"><title>2026-05-13: 19 contributions</title></rect><rect x="690" y="104" width="13" height="13" rx="2.5" fill="#69f0a0"><title>2026-05-14: 22 contributions</title></rect><rect x="690" y="120" width="13" height="13" rx="2.5" fill="#69f0a0"><title>2026-05-15: 20 contributions</title></rect><rect x="706" y="24" width="13" height="13" rx="2.5" fill="#26a641"><title>2026-05-16: 11 contributions</title></rect><rect x="706" y="40" width="13" height="13" rx="2.5" fill="#26a641"><title>2026-05-17: 12 contributions</title></rect><rect x="706" y="56" width="13" height="13" rx="2.5" fill="#69f0a0"><title>2026-05-18: 47 contributions</title></rect><rect x="706" y="72" width="13" height="13" rx="2.5" fill="#69f0a0"><title>2026-05-19: 21 contributions</title></rect><rect x="706" y="88" width="13" height="13" rx="2.5" fill="#69f0a0"><title>2026-05-20: 19 contributions</title></rect><rect x="706" y="104" width="13" height="13" rx="2.5" fill="#69f0a0"><title>2026-05-21: 21 contributions</title></rect><rect x="706" y="120" width="13" height="13" rx="2.5" fill="#69f0a0"><title>2026-05-22: 21 contributions</title></rect><rect x="722" y="24" width="13" height="13" rx="2.5" fill="#161b22"><title>2026-05-23: 0 contributions</title></rect><rect x="722" y="40" width="13" height="13" rx="2.5" fill="#26a641"><title>2026-05-24: 12 contributions</title></rect><rect x="722" y="56" width="13" height="13" rx="2.5" fill="#69f0a0"><title>2026-05-25: 19 contributions</title></rect><rect x="722" y="72" width="13" height="13" rx="2.5" fill="#69f0a0"><title>2026-05-26: 20 contributions</title></rect><rect x="722" y="88" width="13" height="13" rx="2.5" fill="#69f0a0"><title>2026-05-27: 21 contributions</title></rect><rect x="722" y="104" width="13" height="13" rx="2.5" fill="#69f0a0"><title>2026-05-28: 21 contributions</title></rect><rect x="722" y="120" width="13" height="13" rx="2.5" fill="#69f0a0"><title>2026-05-29: 22 contributions</title></rect><rect x="738" y="24" width="13" height="13" rx="2.5" fill="#26a641"><title>2026-05-30: 12 contributions</title></rect><rect x="738" y="40" width="13" height="13" rx="2.5" fill="#26a641"><title>2026-05-31: 12 contributions</title></rect><rect x="738" y="56" width="13" height="13" rx="2.5" fill="#69f0a0"><title>2026-06-01: 21 contributions</title></rect><rect x="738" y="72" width="13" height="13" rx="2.5" fill="#69f0a0"><title>2026-06-02: 23 contributions</title></rect><rect x="738" y="88" width="13" height="13" rx="2.5" fill="#69f0a0"><title>2026-06-03: 22 contributions</title></rect><rect x="738" y="104" width="13" height="13" rx="2.5" fill="#69f0a0"><title>2026-06-04: 23 contributions</title></rect><rect x="738" y="120" width="13" height="13" rx="2.5" fill="#69f0a0"><title>2026-06-05: 24 contributions</title></rect><rect x="754" y="24" width="13" height="13" rx="2.5" fill="#39d353"><title>2026-06-06: 13 contributions</title></rect><rect x="754" y="40" width="13" height="13" rx="2.5" fill="#39d353"><title>2026-06-07: 14 contributions</title></rect><rect x="754" y="56" width="13" height="13" rx="2.5" fill="#69f0a0"><title>2026-06-08: 25 contributions</title></rect><rect x="754" y="72" width="13" height="13" rx="2.5" fill="#69f0a0"><title>2026-06-09: 57 contributions</title></rect><rect x="754" y="88" width="13" height="13" rx="2.5" fill="#69f0a0"><title>2026-06-10: 23 contributions</title></rect><rect x="754" y="104" width="13" height="13" rx="2.5" fill="#161b22"><title>2026-06-11: 0 contributions</title></rect><rect x="754" y="120" width="13" height="13" rx="2.5" fill="#69f0a0"><title>2026-06-12: 23 contributions</title></rect><rect x="770" y="24" width="13" height="13" rx="2.5" fill="#39d353"><title>2026-06-13: 14 contributions</title></rect><rect x="770" y="40" width="13" height="13" rx="2.5" fill="#39d353"><title>2026-06-14: 14 contributions</title></rect><rect x="770" y="56" width="13" height="13" rx="2.5" fill="#69f0a0"><title>2026-06-15: 20 contributions</title></rect><rect x="770" y="72" width="13" height="13" rx="2.5" fill="#69f0a0"><title>2026-06-16: 19 contributions</title></rect><rect x="770" y="88" width="13" height="13" rx="2.5" fill="#69f0a0"><title>2026-06-17: 20 contributions</title></rect><rect x="770" y="104" width="13" height="13" rx="2.5" fill="#39d353"><title>2026-06-18: 16 contributions</title></rect><rect x="770" y="120" width="13" height="13" rx="2.5" fill="#39d353"><title>2026-06-19: 17 contributions</title></rect><rect x="786" y="24" width="13" height="13" rx="2.5" fill="#26a641"><title>2026-06-20: 8 contributions</title></rect><rect x="786" y="40" width="13" height="13" rx="2.5" fill="#006d32"><title>2026-06-21: 6 contributions</title></rect><rect x="786" y="56" width="13" height="13" rx="2.5" fill="#26a641"><title>2026-06-22: 11 contributions</title></rect><rect x="786" y="72" width="13" height="13" rx="2.5" fill="#26a641"><title>2026-06-23: 8 contributions</title></rect><rect x="786" y="88" width="13" height="13" rx="2.5" fill="#39d353"><title>2026-06-24: 17 contributions</title></rect><rect x="786" y="104" width="13" height="13" rx="2.5" fill="#006d32"><title>2026-06-25: 7 contributions</title></rect><rect x="786" y="120" width="13" height="13" rx="2.5" fill="#006d32"><title>2026-06-26: 5 contributions</title></rect><rect x="802" y="24" width="13" height="13" rx="2.5" fill="#0e4429"><title>2026-06-27: 2 contributions</title></rect><rect x="802" y="40" width="13" height="13" rx="2.5" fill="#0e4429"><title>2026-06-28: 2 contributions</title></rect><rect x="802" y="56" width="13" height="13" rx="2.5" fill="#0e4429"><title>2026-06-29: 3 contributions</title></rect><rect x="802" y="72" width="13" height="13" rx="2.5" fill="#161b22"><title>2026-06-30: 0 contributions</title></rect><rect x="802" y="88" width="13" height="13" rx="2.5" fill="#0e4429"><title>2026-07-01: 2 contributions</title></rect><rect x="802" y="104" width="13" height="13" rx="2.5" fill="#0e4429"><title>2026-07-02: 2 contributions</title></rect><rect x="802" y="120" width="13" height="13" rx="2.5" fill="#161b22"><title>2026-07-03: 0 contributions</title></rect><rect x="818" y="24" width="13" height="13" rx="2.5" fill="#0e4429"><title>2026-07-04: 2 contributions</title></rect><rect x="818" y="40" width="13" height="13" rx="2.5" fill="#0e4429"><title>2026-07-05: 2 contributions</title></rect><rect x="818" y="56" width="13" height="13" rx="2.5" fill="#0e4429"><title>2026-07-06: 2 contributions</title></rect><rect x="818" y="72" width="13" height="13" rx="2.5" fill="#0e4429"><title>2026-07-07: 3 contributions</title></rect><rect x="818" y="88" width="13" height="13" rx="2.5" fill="#006d32"><title>2026-07-08: 5 contributions</title></rect><rect x="818" y="104" width="13" height="13" rx="2.5" fill="#006d32"><title>2026-07-09: 5 contributions</title></rect><rect x="818" y="120" width="13" height="13" rx="2.5" fill="#006d32"><title>2026-07-10: 6 contributions</title></rect><rect x="834" y="24" width="13" height="13" rx="2.5" fill="#006d32"><title>2026-07-11: 6 contributions</title></rect><rect x="834" y="40" width="13" height="13" rx="2.5" fill="#006d32"><title>2026-07-12: 5 contributions</title></rect><rect x="834" y="56" width="13" height="13" rx="2.5" fill="#26a641"><title>2026-07-13: 11 contributions</title></rect><rect x="834" y="72" width="13" height="13" rx="2.5" fill="#26a641"><title>2026-07-14: 12 contributions</title></rect><rect x="834" y="88" width="13" height="13" rx="2.5" fill="#39d353"><title>2026-07-15: 14 contributions</title></rect><rect x="834" y="104" width="13" height="13" rx="2.5" fill="#39d353"><title>2026-07-16: 14 contributions</title></rect><rect x="834" y="120" width="13" height="13" rx="2.5" fill="#39d353"><title>2026-07-17: 16 contributions</title></rect><rect x="850" y="24" width="13" height="13" rx="2.5" fill="#26a641"><title>2026-07-18: 9 contributions</title></rect><rect x="850" y="40" width="13" height="13" rx="2.5" fill="#161b22"><title>2026-07-19: 0 contributions</title></rect><rect x="850" y="56" width="13" height="13" rx="2.5" fill="#69f0a0"><title>2026-07-20: 19 contributions</title></rect><rect x="850" y="72" width="13" height="13" rx="2.5" fill="#69f0a0"><title>2026-07-21: 19 contributions</title></rect><rect x="850" y="88" width="13" height="13" rx="2.5" fill="#69f0a0"><title>2026-07-22: 19 contributions</title></rect><rect x="850" y="104" width="13" height="13" rx="2.5" fill="#69f0a0"><title>2026-07-23: 19 contributions</title></rect><rect x="850" y="120" width="13" height="13" rx="2.5" fill="#69f0a0"><title>2026-07-24: 19 contributions</title></rect><rect x="866" y="24" width="13" height="13" rx="2.5" fill="#26a641"><title>2026-07-25: 12 contributions</title></rect>
<text class="total" x="34" y="152">5,454 contributions in the last year</text>
</svg>