<svg xmlns="http://www.w3.org/2000/svg" width="480" height="376" viewBox="0 0 480 376" font-family="ui-monospace, SFMono-Regular, Menlo, Consolas, monospace"><defs><linearGradient id="ibg" x1="0" y1="0" x2="0" y2="1"><stop offset="0" stop-color="#111722"/><stop offset="1" stop-color="#0d1117"/></linearGradient></defs><rect width="480" height="376" rx="12" fill="url(#ibg)"/><rect x="0.5" y="0.5" width="479" height="375" rx="12" fill="none" stroke="#30363d"/><line x1="0" y1="30" x2="480" y2="30" stroke="#30363d"/><circle cx="20" cy="15" r="5" fill="#ff5f56"/><circle cx="36" cy="15" r="5" fill="#ffbd2e"/><circle cx="52" cy="15" r="5" fill="#27c93f"/><text x="240.0" y="18" fill="#7d8590" font-size="12" text-anchor="middle">aarjan@github: ~$ neofetch</text><text x="20" y="57.0" font-size="13.5" font-weight="700"><tspan fill="#22c55e">aarjan</tspan><tspan fill="#7d8590">@</tspan><tspan fill="#a78bfa">github</tspan></text><line x1="116" y1="53.0" x2="460" y2="53.0" stroke="#30363d" stroke-opacity="0.8"/><text x="20" y="75.8" fill="#8b5cf6" font-size="11.8" font-weight="700">Now</text><text x="112" y="75.8" fill="#c9d1d9" font-size="11.8">Computer Engineering Student</text><text x="20" y="94.6" fill="#8b5cf6" font-size="11.8" font-weight="700">Loc</text><text x="112" y="94.6" fill="#c9d1d9" font-size="11.8">Kathmandu, Nepal</text><text x="20" y="113.4" fill="#8b5cf6" font-size="11.8" font-weight="700">Open</text><text x="112" y="113.4" fill="#c9d1d9" font-size="11.8">AI/ML + full-stack + Software Development</text><text x="20" y="140.2" fill="#60a5fa" font-size="12" font-weight="700">&#8212; Stack</text><line x1="72" y1="136.2" x2="460" y2="136.2" stroke="#30363d" stroke-opacity="0.8"/><text x="20" y="159.0" fill="#8b5cf6" font-size="11.8" font-weight="700">Frontend</text><text x="112" y="159.0" fill="#c9d1d9" font-size="11.8">React, Next.js, TypeScript, Tailwind</text><text x="20" y="177.8" fill="#8b5cf6" font-size="11.8" font-weight="700">Backend</text><text x="112" y="177.8" fill="#c9d1d9" font-size="11.8">Node.js, Supabase, PostgreSQL, Docker</text><text x="20" y="196.6" fill="#8b5cf6" font-size="11.8" font-weight="700">AI / ML</text><text x="112" y="196.6" fill="#c9d1d9" font-size="11.8">LLM workflows, XGBoost, prompt systems</text><text x="20" y="223.4" fill="#60a5fa" font-size="12" font-weight="700">&#8212; Projects</text><line x1="96" y1="219.4" x2="460" y2="219.4" stroke="#30363d" stroke-opacity="0.8"/><circle cx="23" cy="238.2" r="2.5" fill="#22c55e"/><text x="34" y="242.2" fill="#c9d1d9" font-size="11.8">Mergy — repository analytics</text><circle cx="23" cy="257.0" r="2.5" fill="#22c55e"/><text x="34" y="261.0" fill="#c9d1d9" font-size="11.8">Monex — currency intelligence</text><circle cx="23" cy="275.8" r="2.5" fill="#22c55e"/><text x="34" y="279.8" fill="#c9d1d9" font-size="11.8">Aether — ambient productivity</text><text x="20" y="306.6" fill="#60a5fa" font-size="12" font-weight="700">&#8212; Focus</text><line x1="72" y1="302.6" x2="460" y2="302.6" stroke="#30363d" stroke-opacity="0.8"/><text x="20" y="325.4" fill="#8b5cf6" font-size="11.8" font-weight="700">Build</text><text x="112" y="325.4" fill="#c9d1d9" font-size="11.8">Clean systems, sharp UX, real-world impact</text></svg>
