<svg width="1600" height="760" viewBox="0 0 1600 760" xmlns="http://www.w3.org/2000/svg">

<defs>

<linearGradient id="bg" x1="0" y1="0" x2="0" y2="760">
<stop offset="0%" stop-color="#050505"/>
<stop offset="100%" stop-color="#000000"/>
</linearGradient>

<radialGradient id="glow1" cx="50%" cy="25%" r="70%">
<stop offset="0%" stop-color="#FFFFFF" stop-opacity="0.08"/>
<stop offset="100%" stop-color="#000000" stop-opacity="0"/>
</radialGradient>

<linearGradient id="lineFade">

<stop offset="0%" stop-color="#000000"/>

<stop offset="50%" stop-color="#353535"/>

<stop offset="100%" stop-color="#000000"/>

</linearGradient>

<filter id="softBlur">
<feGaussianBlur stdDeviation="90"/>
</filter>

</defs>

<rect width="1600" height="760" fill="url(#bg)"/>

<!-- Ambient Light -->

<circle cx="800" cy="180" r="260"
fill="white"
opacity="0.08"
filter="url(#softBlur)">

<animate attributeName="opacity"
values="0.04;0.08;0.04"
dur="10s"
repeatCount="indefinite"/>

</circle>

<rect width="1600"
height="760"
fill="url(#glow1)"/>

<!-- Grid -->

<g opacity="0.06">

<path d="M0 100H1600" stroke="url(#lineFade)"/>
<path d="M0 200H1600" stroke="url(#lineFade)"/>
<path d="M0 300H1600" stroke="url(#lineFade)"/>
<path d="M0 400H1600" stroke="url(#lineFade)"/>
<path d="M0 500H1600" stroke="url(#lineFade)"/>
<path d="M0 600H1600" stroke="url(#lineFade)"/>

<path d="M200 0V760" stroke="url(#lineFade)"/>
<path d="M400 0V760" stroke="url(#lineFade)"/>
<path d="M600 0V760" stroke="url(#lineFade)"/>
<path d="M800 0V760" stroke="url(#lineFade)"/>
<path d="M1000 0V760" stroke="url(#lineFade)"/>
<path d="M1200 0V760" stroke="url(#lineFade)"/>
<path d="M1400 0V760" stroke="url(#lineFade)"/>

</g>

<!-- Small Label -->

<text
x="800"
y="170"
fill="#8E8E8E"
font-size="18"
font-family="Inter,Arial"
text-anchor="middle"
letter-spacing="8">

SOFTWARE ENGINEER • PRODUCT BUILDER

</text>

<!-- Title -->

<text
x="800"
y="320"
fill="white"
font-size="112"
font-weight="700"
font-family="Inter,Arial"
letter-spacing="18"
text-anchor="middle">

AARJAN

</text>

<!-- Subtitle -->

<text
x="800"
y="390"
fill="#A5A5A5"
font-size="28"
font-family="Inter,Arial"
text-anchor="middle">

Building intelligent software for everyday life.

</text>

<!-- Divider -->

<line
x1="610"
y1="470"
x2="990"
y2="470"
stroke="#2B2B2B"/>

<!-- Bottom -->

<text
x="800"
y="560"
fill="#686868"
font-size="18"
font-family="Inter,Arial"
letter-spacing="10"
text-anchor="middle">

AI · ENGINEERING · DESIGN · PRODUCT

</text>

</svg>
