<svg width="1600" height="560" viewBox="0 0 1600 560" xmlns="http://www.w3.org/2000/svg">

<defs>

<linearGradient id="bg" x1="0" y1="0" x2="0" y2="560">
<stop offset="0%" stop-color="#000000"/>
<stop offset="100%" stop-color="#050505"/>
</linearGradient>

</defs>

<rect width="1600" height="560" fill="url(#bg)"/>

<!-- Title -->

<text x="800" y="90" fill="#FFFFFF" font-size="36"
font-family="Arial, Helvetica, sans-serif"
font-weight="700"
text-anchor="middle">SELECTED WORK</text>

<!-- Left Card -->
  
<rect
x="110"
y="150"
width="640"
height="280"
rx="22"
fill="#070707"
stroke="#2A2A2A"/>

<!-- Right Card -->

<rect
x="850"
y="150"
width="640"
height="280"
rx="22"
fill="#070707"
stroke="#2A2A2A"/>

  <!-- LEFT CARD -->

<text
x="155"
y="205"
fill="#FFFFFF"
font-size="34"
font-family="Arial, Helvetica, sans-serif"
font-weight="700">

MERGY

</text>

<text
x="155"
y="238"
fill="#6D6D6D"
font-size="16"
font-family="Arial, Helvetica, sans-serif">

Mergy is a web platform that helps developers analyze GitHub
</text>

<text
x="155"
y="263"
fill="#6D6D6D"
font-size="16"
font-family="Arial, Helvetica, sans-serif">

repositories through repository analytics and machine learning-driven insights. 

</text>

<line
x1="155"
y1="295"
x2="705"
y2="295"
stroke="#242424"/>

<!-- RIGHT CARD -->

<text
x="895"
y="205"
fill="#FFFFFF"
font-size="34"
font-family="Arial, Helvetica, sans-serif"
font-weight="700">

MONEX

</text>

<text
x="895"
y="238"
fill="#6D6D6D"
font-size="16"
font-family="Arial, Helvetica, sans-serif">

Monex is a web application that provides fast, reliable, and accurate currency 

</text>

<text
x="895"
y="263"
fill="#6D6D6D"
font-size="16"
font-family="Arial, Helvetica, sans-serif">

conversion with live exchange rates.

</text>

<line
x1="895"
y1="295"
x2="1445"
y2="295"
stroke="#242424"/>

  <!-- MERGY TAGS -->

<!-- MERGY TECH ICONS -->

<image
x="155"
y="330"
width="45"
height="45"
href="https://skillicons.dev/icons?i=ts"/>

<image
x="215"
y="330"
width="45"
height="45"
href="https://skillicons.dev/icons?i=react"/>

<image
x="275"
y="330"
width="45"
height="45"
href="https://skillicons.dev/icons?i=nextjs"/>

<image
x="335"
y="330"
width="45"
height="45"
href="https://skillicons.dev/icons?i=tailwind"/>

<image
x="395"
y="330"
width="45"
height="45"
href="https://skillicons.dev/icons?i=github"/>

<image
x="455"
y="330"
width="45"
height="45"
href="https://skillicons.dev/icons?i=vscode"/>

<image
x="515"
y="330"
width="45"
height="45"
href="https://skillicons.dev/icons?i=vercel"/>

<!-- MONEX TAGS -->

<rect x="895" y="335" width="92" height="34" rx="17" fill="#101010" stroke="#2B2B2B"/>
<text x="941" y="357" fill="#FFFFFF" font-size="13" text-anchor="middle" font-family="Arial">Next.js</text>

<rect x="1000" y="335" width="116" height="34" rx="17" fill="#101010" stroke="#2B2B2B"/>
<text x="1058" y="357" fill="#FFFFFF" font-size="13" text-anchor="middle" font-family="Arial">TypeScript</text>

<rect x="1130" y="335" width="74" height="34" rx="17" fill="#101010" stroke="#2B2B2B"/>
<text x="1167" y="357" fill="#FFFFFF" font-size="13" text-anchor="middle" font-family="Arial">APIs</text>

  <!-- Bottom divider -->

<line
x1="110"
y1="470"
x2="1490"
y2="470"
stroke="#1F1F1F"/>

  <!-- Bottom divider -->

<g opacity="1">

<line
x1="220"
y1="505"
x2="720"
y2="505"
stroke="#2A2A2A"
stroke-width="1"/>

<circle
cx="800"
cy="505"
r="3"
fill="#FFFFFF"/>

<line
x1="880"
y1="505"
x2="1380"
y2="505"
stroke="#2A2A2A"
stroke-width="1"/>

</g>
</svg>
