<svg width="1600" height="560" viewBox="0 0 1600 560" xmlns="http://www.w3.org/2000/svg">

<defs>

<linearGradient id="bg" x1="0" y1="0" x2="0" y2="560">
<stop offset="0%" stop-color="#000000"/>
<stop offset="100%" stop-color="#050505"/>
</linearGradient>

</defs>

<rect width="1600" height="560" fill="url(#bg)"/>

<!-- Title -->

<text
x="800"
y="90"
fill="#FFFFFF"
font-size="36"
font-family="Arial, Helvetica, sans-serif"
font-weight="700"
text-anchor="middle">

SELECTED WORK

</text>

<!-- Left Card -->
  
<rect
x="110"
y="150"
width="640"
height="280"
rx="22"
fill="#070707"
stroke="#2A2A2A"/>

<!-- Right Card -->

<rect
x="850"
y="150"
width="640"
height="280"
rx="22"
fill="#070707"
stroke="#2A2A2A"/>

  <!-- LEFT CARD -->

<text
x="155"
y="205"
fill="#FFFFFF"
font-size="34"
font-family="Arial, Helvetica, sans-serif"
font-weight="700">

MERGY

</text>

<text
x="155"
y="238"
fill="#6D6D6D"
font-size="16"
font-family="Arial, Helvetica, sans-serif">

AI-powered collaboration platform

</text>

<text
x="155"
y="263"
fill="#6D6D6D"
font-size="16"
font-family="Arial, Helvetica, sans-serif">

focused on intelligent workflows.

</text>

<line
x1="155"
y1="295"
x2="705"
y2="295"
stroke="#242424"/>

<!-- RIGHT CARD -->

<text
x="895"
y="205"
fill="#FFFFFF"
font-size="34"
font-family="Arial, Helvetica, sans-serif"
font-weight="700">

MONEX

</text>

<text
x="895"
y="238"
fill="#6D6D6D"
font-size="16"
font-family="Arial, Helvetica, sans-serif">

Modern currency platform with

</text>

<text
x="895"
y="263"
fill="#6D6D6D"
font-size="16"
font-family="Arial, Helvetica, sans-serif">

real-time exchange rates.

</text>

<line
x1="895"
y1="295"
x2="1445"
y2="295"
stroke="#242424"/>

  <!-- MERGY TAGS -->

<rect x="155" y="335" width="92" height="34" rx="17" fill="#101010" stroke="#2B2B2B"/>
<text x="201" y="357" fill="#FFFFFF" font-size="13" text-anchor="middle" font-family="Arial">Node.js</text>

<rect x="260" y="335" width="82" height="34" rx="17" fill="#101010" stroke="#2B2B2B"/>
<text x="301" y="357" fill="#FFFFFF" font-size="13" text-anchor="middle" font-family="Arial">React</text>

<rect x="355" y="335" width="70" height="34" rx="17" fill="#101010" stroke="#2B2B2B"/>
<text x="390" y="357" fill="#FFFFFF" font-size="13" text-anchor="middle" font-family="Arial">ML</text>

<rect x="438" y="335" width="104" height="34" rx="17" fill="#101010" stroke="#2B2B2B"/>
<text x="490" y="357" fill="#FFFFFF" font-size="13" text-anchor="middle" font-family="Arial">XGBoost</text>

<!-- MONEX TAGS -->

<rect x="895" y="335" width="92" height="34" rx="17" fill="#101010" stroke="#2B2B2B"/>
<text x="941" y="357" fill="#FFFFFF" font-size="13" text-anchor="middle" font-family="Arial">Next.js</text>

<rect x="1000" y="335" width="116" height="34" rx="17" fill="#101010" stroke="#2B2B2B"/>
<text x="1058" y="357" fill="#FFFFFF" font-size="13" text-anchor="middle" font-family="Arial">TypeScript</text>

<rect x="1130" y="335" width="74" height="34" rx="17" fill="#101010" stroke="#2B2B2B"/>
<text x="1167" y="357" fill="#FFFFFF" font-size="13" text-anchor="middle" font-family="Arial">APIs</text>
</svg>
